<svg width="60" height="60" viewBox="0 0 60 60" fill="none" xmlns="http://www.w3.org/2000/svg">
<path d="M51.4594 25.0594C52.5574 29.7035 52.1192 34.5785 50.2105 38.9523C48.3018 43.3261 45.0257 46.9627 40.8741 49.3159C36.7224 51.6691 31.9194 52.6119 27.1863 52.0027C22.4532 51.3935 18.0455 49.2652 14.625 45.9375" stroke="#304038" stroke-width="2" stroke-linecap="round"/>
<path d="M8.43833 34.8469C8.10731 33.3063 7.94075 31.735 7.94145 30.1594C7.93273 25.8304 9.19901 21.5947 11.5823 17.9808C13.9655 14.3669 17.3603 11.5349 21.3428 9.83806C25.3254 8.14124 29.7195 7.65478 33.9768 8.43939C38.2341 9.22399 42.166 11.2449 45.2821 14.25" stroke="#304038" stroke-width="2" stroke-linecap="round"/>
<path d="M35.3711 15.225L45.5805 14.475L44.7836 4.91248" stroke="#304038" stroke-width="2" stroke-linecap="round"/>
<path d="M24.2898 44.775L14.0898 45.525L14.8867 55.0875" stroke="#304038" stroke-width="2" stroke-linecap="round"/>
</svg>
