<svg width="60" height="60" viewBox="0 0 60 60" fill="none" xmlns="http://www.w3.org/2000/svg">
<path d="M6.25166 32.5H21.2517M38.7517 32.5H53.7517M30.0017 17.5V52.5M30.0017 17.5C33.4535 17.5 36.2517 14.7018 36.2517 11.25M30.0017 17.5C26.55 17.5 23.7517 14.7018 23.7517 11.25M36.2517 11.25C36.2517 7.79822 33.4535 5 30.0017 5C26.55 5 23.7517 7.79822 23.7517 11.25M36.2517 11.25H50.0017M23.7517 11.25L10.0017 11.25M10.0017 52.5H50.0017M22.2028 35.841C21.201 39.6765 17.7969 42.5 13.7517 42.5C9.70641 42.5 6.30231 39.6765 5.30058 35.841C5.21873 35.5275 5.17781 35.3707 5.17386 34.7447C5.17143 34.3607 5.31408 33.476 5.43696 33.1122C5.63743 32.519 5.85443 32.1842 6.28846 31.5147L13.7517 20L21.2149 31.5147C21.6489 32.1842 21.8659 32.519 22.0664 33.1122C22.1893 33.476 22.3319 34.3607 22.3295 34.7447C22.3255 35.3707 22.2846 35.5275 22.2028 35.841ZM54.7027 35.841C53.701 39.6765 50.297 42.5 46.2517 42.5C42.2065 42.5 38.8022 39.6765 37.8005 35.841C37.7187 35.5275 37.6777 35.3707 37.6737 34.7447C37.6715 34.3607 37.814 33.476 37.937 33.1122C38.1375 32.519 38.3545 32.1842 38.7885 31.5147L46.2517 20L53.715 31.5147C54.149 32.1842 54.366 32.519 54.5665 33.1122C54.6892 33.476 54.832 34.3607 54.8295 34.7447C54.8255 35.3707 54.7847 35.5275 54.7027 35.841Z" stroke="white" stroke-width="2" stroke-linecap="round" stroke-linejoin="round"/>
</svg>
