<svg width="60" height="60" viewBox="0 0 60 60" fill="none" xmlns="http://www.w3.org/2000/svg">
<g clip-path="url(#clip0_548_2227)">
<mask id="mask0_548_2227" style="mask-type:luminance" maskUnits="userSpaceOnUse" x="0" y="0" width="60" height="60">
<path d="M0 7.62939e-06H60V60H0V7.62939e-06Z" fill="white"/>
</mask>
<g mask="url(#mask0_548_2227)">
<path d="M32.0175 23.2136C29.8596 23.2136 28.1102 21.4641 28.1102 19.3061C28.1102 17.1482 29.8596 15.3987 32.0175 15.3987C34.1755 15.3987 35.925 17.1482 35.925 19.3061C35.925 21.4641 34.1755 23.2136 32.0175 23.2136ZM43.0503 16.4213C41.6645 16.99 40.0376 16.4611 39.2682 15.1287C38.498 13.7957 38.8543 12.1209 40.0412 11.2069C38.6677 9.84568 36.949 8.83177 35.0282 8.307C34.832 9.79482 33.559 10.9426 32.0175 10.9426C30.4768 10.9426 29.203 9.79482 29.0069 8.307C27.0861 8.83177 25.368 9.84568 23.9945 11.2069C25.1809 12.1215 25.5371 13.7957 24.7676 15.1287C23.9979 16.4611 22.3705 16.99 20.9855 16.4213C20.7454 17.3426 20.6172 18.3097 20.6172 19.3061C20.6172 20.3084 20.7464 21.2806 20.9896 22.2066C22.3739 21.6397 23.9985 22.1691 24.7676 23.5009C25.5348 24.8306 25.1833 26.4991 24.0044 27.4152C25.3766 28.772 27.0925 29.7829 29.0091 30.3059C29.2124 28.8268 30.4824 27.6872 32.0175 27.6872C33.5532 27.6872 34.8228 28.8268 35.026 30.3059C36.9433 29.7829 38.6591 28.772 40.0314 27.4152C38.8525 26.4991 38.5002 24.8306 39.2682 23.5009C40.0371 22.1691 41.6611 21.6397 43.0461 22.2066C43.2892 21.2806 43.4185 20.3084 43.4185 19.3061C43.4185 18.3097 43.2903 17.3426 43.0503 16.4213Z" stroke="white" stroke-width="2" stroke-miterlimit="10" stroke-linecap="round" stroke-linejoin="round"/>
<path d="M15.8449 50.2132H10.043L10.0431 34.6636H22.3661L34.3143 39.609C36.4043 40.4741 37.389 42.8768 36.5069 44.9597L36.4665 45.0553C35.5775 47.155 33.2054 48.1618 31.0972 47.3486C27.7066 46.0408 23.26 44.3313 23.26 44.3313L34.7093 48.733C37.1241 49.6613 39.7609 49.8488 42.2829 49.2714L54.0129 46.5857C56.1623 46.0937 58.2968 47.4629 58.7455 49.6218C59.1743 51.6846 57.903 53.7192 55.8611 54.2382L41.8648 57.7953C39.2259 58.4661 36.4431 58.292 33.9082 57.2979L25.6241 54.0486" stroke="white" stroke-width="2" stroke-miterlimit="10" stroke-linecap="round" stroke-linejoin="round"/>
<path d="M10.0425 52.4988H1.17188V31.8999H10.0426L10.0425 52.4988Z" stroke="white" stroke-width="2" stroke-miterlimit="10" stroke-linecap="round" stroke-linejoin="round"/>
<path d="M44.259 31.9688C45.8642 30.3853 47.1905 28.4658 48.1189 26.2576C51.8906 17.2869 47.6759 6.95719 38.7052 3.18574C29.7346 -0.585938 19.4048 3.62871 15.6332 12.5993C13.9701 16.555 13.8608 20.7745 15.0263 24.5797" stroke="white" stroke-width="2" stroke-miterlimit="10" stroke-linecap="round" stroke-linejoin="round"/>
<path d="M11.8848 23.3207L15.1884 25.2676L17.3713 22.0818" stroke="white" stroke-width="2" stroke-miterlimit="10" stroke-linecap="round" stroke-linejoin="round"/>
</g>
</g>
<defs>
<clipPath id="clip0_548_2227">
<rect width="60" height="60" fill="white"/>
</clipPath>
</defs>
</svg>
