<svg width="70" height="70" viewBox="0 0 70 70" fill="none" xmlns="http://www.w3.org/2000/svg">
<g clip-path="url(#clip0_548_1855)">
<path d="M35 29.5312C41.6336 29.5312 47.0312 24.1336 47.0312 17.5C47.0312 10.8664 41.6336 5.46875 35 5.46875C28.3664 5.46875 22.9688 10.8664 22.9688 17.5C22.9688 24.1336 28.3664 29.5312 35 29.5312ZM35 7.65625C40.4283 7.65625 44.8438 12.0717 44.8438 17.5C44.8438 22.9283 40.4283 27.3438 35 27.3438C29.5717 27.3438 25.1562 22.9283 25.1562 17.5C25.1562 12.0717 29.5717 7.65625 35 7.65625Z" fill="#304038"/>
<path d="M31.7186 24.5152L42.3356 13.8981L40.7891 12.3516L31.7186 21.422L29.2106 18.9141L27.6641 20.4606L31.7186 24.5152Z" fill="#304038"/>
<path d="M64.1792 55.7812H57.6167L53.2417 44.8438H33.5542H31.72H16.7608L12.3858 55.7812H4.65625L0.71875 68.9062H22.4483H25.5327H38.2825H49.7417H69.4292L64.1792 55.7812ZM51.7608 47.0312L55.2608 55.7812H44.4906H42.6575H37.9292L34.4292 47.0312H51.7608ZM18.2417 47.0312H31.72H32.0733L35.5733 55.7812H27.6983H27.345H21.5962H14.7406L18.2417 47.0312ZM3.65875 66.7188L6.28375 57.9688H11.5108H19.9677L22.5927 66.7188H3.65875ZM24.2114 64.4995L22.2525 57.9688H26.8233L24.2114 64.4995ZM38.2825 66.7188H25.6792L29.1792 57.9688H38.8042H42.6575H43.0108L46.5108 66.7188H38.2825ZM48.8667 66.7188L45.3667 57.9688H58.4917H62.6994L66.1994 66.7188H48.8667Z" fill="#304038"/>
<path d="M28.4627 32.5391L27.1359 43.1484L35 40.5278L42.863 43.1484L41.5363 32.5391C47.3386 30.0081 51.4062 24.2233 51.4062 17.5C51.4062 8.45359 44.0464 1.09375 35 1.09375C25.9536 1.09375 18.5938 8.45359 18.5938 17.5C18.5938 24.2233 22.6614 30.0081 28.4627 32.5391ZM40.262 39.9766L36.0938 38.5875V36.0938H33.9062V38.5875L29.738 39.9766L30.5736 33.2828C31.9845 33.6787 33.4644 33.9062 35 33.9062C36.5356 33.9062 38.0155 33.6787 39.4253 33.2828L40.262 39.9766ZM35 3.28125C42.84 3.28125 49.2188 9.66 49.2188 17.5C49.2188 25.34 42.84 31.7188 35 31.7188C27.16 31.7188 20.7812 25.34 20.7812 17.5C20.7812 9.66 27.16 3.28125 35 3.28125Z" fill="#304038"/>
<path d="M59.0625 19.6875H61.25V21.875H59.0625V19.6875Z" fill="#304038"/>
<path d="M59.0625 24.0625H61.25V26.25H59.0625V24.0625Z" fill="#304038"/>
<path d="M61.25 21.875H63.4375V24.0625H61.25V21.875Z" fill="#304038"/>
<path d="M56.875 21.875H59.0625V24.0625H56.875V21.875Z" fill="#304038"/>
<path d="M64.5312 31.7188H66.7188V33.9062H64.5312V31.7188Z" fill="#304038"/>
<path d="M64.5312 36.0938H66.7188V38.2812H64.5312V36.0938Z" fill="#304038"/>
<path d="M66.7188 33.9062H68.9062V36.0938H66.7188V33.9062Z" fill="#304038"/>
<path d="M62.3438 33.9062H64.5312V36.0938H62.3438V33.9062Z" fill="#304038"/>
<path d="M55.7812 37.1875H57.9688V39.375H55.7812V37.1875Z" fill="#304038"/>
<path d="M55.7812 41.5625H57.9688V43.75H55.7812V41.5625Z" fill="#304038"/>
<path d="M57.9688 39.375H60.1562V41.5625H57.9688V39.375Z" fill="#304038"/>
<path d="M53.5938 39.375H55.7812V41.5625H53.5938V39.375Z" fill="#304038"/>
<path d="M62.3438 9.84375H64.5312V12.0312H62.3438V9.84375Z" fill="#304038"/>
<path d="M62.3438 14.2188H64.5312V16.4062H62.3438V14.2188Z" fill="#304038"/>
<path d="M64.5312 12.0312H66.7188V14.2188H64.5312V12.0312Z" fill="#304038"/>
<path d="M60.1562 12.0312H62.3438V14.2188H60.1562V12.0312Z" fill="#304038"/>
<path d="M53.5938 3.28125H55.7812V5.46875H53.5938V3.28125Z" fill="#304038"/>
<path d="M53.5938 7.65625H55.7812V9.84375H53.5938V7.65625Z" fill="#304038"/>
<path d="M55.7812 5.46875H57.9688V7.65625H55.7812V5.46875Z" fill="#304038"/>
<path d="M51.4062 5.46875H53.5938V7.65625H51.4062V5.46875Z" fill="#304038"/>
<path d="M8.75 19.6875H10.9375V21.875H8.75V19.6875Z" fill="#304038"/>
<path d="M8.75 24.0625H10.9375V26.25H8.75V24.0625Z" fill="#304038"/>
<path d="M6.5625 21.875H8.75V24.0625H6.5625V21.875Z" fill="#304038"/>
<path d="M10.9375 21.875H13.125V24.0625H10.9375V21.875Z" fill="#304038"/>
<path d="M3.28125 31.7188H5.46875V33.9062H3.28125V31.7188Z" fill="#304038"/>
<path d="M3.28125 36.0938H5.46875V38.2812H3.28125V36.0938Z" fill="#304038"/>
<path d="M1.09375 33.9062H3.28125V36.0938H1.09375V33.9062Z" fill="#304038"/>
<path d="M5.46875 33.9062H7.65625V36.0938H5.46875V33.9062Z" fill="#304038"/>
<path d="M12.0312 37.1875H14.2188V39.375H12.0312V37.1875Z" fill="#304038"/>
<path d="M12.0312 41.5625H14.2188V43.75H12.0312V41.5625Z" fill="#304038"/>
<path d="M9.84375 39.375H12.0312V41.5625H9.84375V39.375Z" fill="#304038"/>
<path d="M14.2188 39.375H16.4062V41.5625H14.2188V39.375Z" fill="#304038"/>
<path d="M5.46875 9.84375H7.65625V12.0312H5.46875V9.84375Z" fill="#304038"/>
<path d="M5.46875 14.2188H7.65625V16.4062H5.46875V14.2188Z" fill="#304038"/>
<path d="M3.28125 12.0312H5.46875V14.2188H3.28125V12.0312Z" fill="#304038"/>
<path d="M7.65625 12.0312H9.84375V14.2188H7.65625V12.0312Z" fill="#304038"/>
<path d="M14.2188 3.28125H16.4062V5.46875H14.2188V3.28125Z" fill="#304038"/>
<path d="M14.2188 7.65625H16.4062V9.84375H14.2188V7.65625Z" fill="#304038"/>
<path d="M12.0312 5.46875H14.2188V7.65625H12.0312V5.46875Z" fill="#304038"/>
<path d="M16.4062 5.46875H18.5938V7.65625H16.4062V5.46875Z" fill="#304038"/>
<path d="M47.0312 49.2188H49.2188V51.4062H47.0312V49.2188Z" fill="#304038"/>
<path d="M38.2812 49.2188H40.4688V51.4062H38.2812V49.2188Z" fill="#304038"/>
<path d="M42.6562 49.2188H44.8438V51.4062H42.6562V49.2188Z" fill="#304038"/>
<path d="M49.2188 60.1562H51.4062V62.3438H49.2188V60.1562Z" fill="#304038"/>
<path d="M57.9688 60.1562H60.1562V62.3438H57.9688V60.1562Z" fill="#304038"/>
<path d="M53.5938 60.1562H55.7812V62.3438H53.5938V60.1562Z" fill="#304038"/>
</g>
<defs>
<clipPath id="clip0_548_1855">
<rect width="70" height="70" fill="white"/>
</clipPath>
</defs>
</svg>
