<svg width="24" height="24" viewBox="0 0 24 24" fill="none" xmlns="http://www.w3.org/2000/svg">
<path d="M16.0006 8C16.0006 9.06087 15.5792 10.0783 14.829 10.8284C14.0789 11.5786 13.0615 12 12.0006 12C10.9397 12 9.92229 11.5786 9.17214 10.8284C8.422 10.0783 8.00057 9.06087 8.00057 8M3.63379 7.40138L2.93379 15.8014C2.78341 17.6059 2.70822 18.5082 3.01325 19.2042C3.28125 19.8157 3.7456 20.3204 4.33275 20.6382C5.00104 21 5.90643 21 7.71721 21H16.284C18.0947 21 19.0001 21 19.6684 20.6382C20.2556 20.3204 20.7199 19.8157 20.9879 19.2042C21.2929 18.5082 21.2177 17.6059 21.0674 15.8014L20.3674 7.40138C20.238 5.84875 20.1733 5.07243 19.8295 4.48486C19.5267 3.96744 19.0758 3.5526 18.5351 3.29385C17.921 3 17.142 3 15.584 3H8.41721C6.85919 3 6.08019 3 5.46608 3.29384C4.92531 3.5526 4.47447 3.96744 4.17169 4.48486C3.82787 5.07243 3.76317 5.84875 3.63379 7.40138Z" stroke="#2F3D38" stroke-width="2" stroke-linecap="round" stroke-linejoin="round"/>
</svg>
