<svg width="80" height="80" viewBox="0 0 80 80" fill="none" xmlns="http://www.w3.org/2000/svg">
<path d="M40 33.75C47.5812 33.75 53.75 27.5812 53.75 20C53.75 12.4187 47.5812 6.25 40 6.25C32.4187 6.25 26.25 12.4187 26.25 20C26.25 27.5812 32.4187 33.75 40 33.75ZM40 8.75C46.2038 8.75 51.25 13.7963 51.25 20C51.25 26.2038 46.2038 31.25 40 31.25C33.7963 31.25 28.75 26.2038 28.75 20C28.75 13.7963 33.7963 8.75 40 8.75Z" fill="#304038"/>
<path d="M36.25 28.0173L48.3837 15.8836L46.6162 14.1161L36.25 24.4823L33.3837 21.6161L31.6162 23.3836L36.25 28.0173Z" fill="#304038"/>
<path d="M73.3478 63.75H65.8478L60.8478 51.25H38.3478H36.2515H19.1553L14.1553 63.75H5.32153L0.821533 78.75H25.6553H29.1803H43.7515H56.8478H79.3478L73.3478 63.75ZM59.1553 53.75L63.1553 63.75H50.8465H48.7515H43.3478L39.3478 53.75H59.1553ZM20.8478 53.75H36.2515H36.6553L40.6553 63.75H31.6553H31.2515H24.6815H16.8465L20.8478 53.75ZM4.18153 76.25L7.18153 66.25H13.1553H22.8203L25.8203 76.25H4.18153ZM27.6703 73.7138L25.4315 66.25H30.6553L27.6703 73.7138ZM43.7515 76.25H29.3478L33.3478 66.25H44.3478H48.7515H49.1553L53.1553 76.25H43.7515ZM55.8478 76.25L51.8478 66.25H66.8478H71.6565L75.6565 76.25H55.8478Z" fill="#304038"/>
<path d="M32.5288 37.1875L31.0125 49.3125L40 46.3175L48.9862 49.3125L47.47 37.1875C54.1013 34.295 58.75 27.6838 58.75 20C58.75 9.66125 50.3387 1.25 40 1.25C29.6613 1.25 21.25 9.66125 21.25 20C21.25 27.6838 25.8988 34.295 32.5288 37.1875ZM46.0138 45.6875L41.25 44.1V41.25H38.75V44.1L33.9862 45.6875L34.9412 38.0375C36.5537 38.49 38.245 38.75 40 38.75C41.755 38.75 43.4463 38.49 45.0575 38.0375L46.0138 45.6875ZM40 3.75C48.96 3.75 56.25 11.04 56.25 20C56.25 28.96 48.96 36.25 40 36.25C31.04 36.25 23.75 28.96 23.75 20C23.75 11.04 31.04 3.75 40 3.75Z" fill="#304038"/>
<path d="M67.5 22.5H70V25H67.5V22.5Z" fill="#304038"/>
<path d="M67.5 27.5H70V30H67.5V27.5Z" fill="#304038"/>
<path d="M70 25H72.5V27.5H70V25Z" fill="#304038"/>
<path d="M65 25H67.5V27.5H65V25Z" fill="#304038"/>
<path d="M73.75 36.25H76.25V38.75H73.75V36.25Z" fill="#304038"/>
<path d="M73.75 41.25H76.25V43.75H73.75V41.25Z" fill="#304038"/>
<path d="M76.25 38.75H78.75V41.25H76.25V38.75Z" fill="#304038"/>
<path d="M71.25 38.75H73.75V41.25H71.25V38.75Z" fill="#304038"/>
<path d="M63.75 42.5H66.25V45H63.75V42.5Z" fill="#304038"/>
<path d="M63.75 47.5H66.25V50H63.75V47.5Z" fill="#304038"/>
<path d="M66.25 45H68.75V47.5H66.25V45Z" fill="#304038"/>
<path d="M61.25 45H63.75V47.5H61.25V45Z" fill="#304038"/>
<path d="M71.25 11.25H73.75V13.75H71.25V11.25Z" fill="#304038"/>
<path d="M71.25 16.25H73.75V18.75H71.25V16.25Z" fill="#304038"/>
<path d="M73.75 13.75H76.25V16.25H73.75V13.75Z" fill="#304038"/>
<path d="M68.75 13.75H71.25V16.25H68.75V13.75Z" fill="#304038"/>
<path d="M61.25 3.75H63.75V6.25H61.25V3.75Z" fill="#304038"/>
<path d="M61.25 8.75H63.75V11.25H61.25V8.75Z" fill="#304038"/>
<path d="M63.75 6.25H66.25V8.75H63.75V6.25Z" fill="#304038"/>
<path d="M58.75 6.25H61.25V8.75H58.75V6.25Z" fill="#304038"/>
<path d="M10 22.5H12.5V25H10V22.5Z" fill="#304038"/>
<path d="M10 27.5H12.5V30H10V27.5Z" fill="#304038"/>
<path d="M7.5 25H10V27.5H7.5V25Z" fill="#304038"/>
<path d="M12.5 25H15V27.5H12.5V25Z" fill="#304038"/>
<path d="M3.75 36.25H6.25V38.75H3.75V36.25Z" fill="#304038"/>
<path d="M3.75 41.25H6.25V43.75H3.75V41.25Z" fill="#304038"/>
<path d="M1.25 38.75H3.75V41.25H1.25V38.75Z" fill="#304038"/>
<path d="M6.25 38.75H8.75V41.25H6.25V38.75Z" fill="#304038"/>
<path d="M13.75 42.5H16.25V45H13.75V42.5Z" fill="#304038"/>
<path d="M13.75 47.5H16.25V50H13.75V47.5Z" fill="#304038"/>
<path d="M11.25 45H13.75V47.5H11.25V45Z" fill="#304038"/>
<path d="M16.25 45H18.75V47.5H16.25V45Z" fill="#304038"/>
<path d="M6.25 11.25H8.75V13.75H6.25V11.25Z" fill="#304038"/>
<path d="M6.25 16.25H8.75V18.75H6.25V16.25Z" fill="#304038"/>
<path d="M3.75 13.75H6.25V16.25H3.75V13.75Z" fill="#304038"/>
<path d="M8.75 13.75H11.25V16.25H8.75V13.75Z" fill="#304038"/>
<path d="M16.25 3.75H18.75V6.25H16.25V3.75Z" fill="#304038"/>
<path d="M16.25 8.75H18.75V11.25H16.25V8.75Z" fill="#304038"/>
<path d="M13.75 6.25H16.25V8.75H13.75V6.25Z" fill="#304038"/>
<path d="M18.75 6.25H21.25V8.75H18.75V6.25Z" fill="#304038"/>
<path d="M53.75 56.25H56.25V58.75H53.75V56.25Z" fill="#304038"/>
<path d="M43.75 56.25H46.25V58.75H43.75V56.25Z" fill="#304038"/>
<path d="M48.75 56.25H51.25V58.75H48.75V56.25Z" fill="#304038"/>
<path d="M56.25 68.75H58.75V71.25H56.25V68.75Z" fill="#304038"/>
<path d="M66.25 68.75H68.75V71.25H66.25V68.75Z" fill="#304038"/>
<path d="M61.25 68.75H63.75V71.25H61.25V68.75Z" fill="#304038"/>
</svg>
