<svg width="60" height="60" viewBox="0 0 60 60" fill="none" xmlns="http://www.w3.org/2000/svg">
<path d="M16.25 50H12.5C9.73857 50 7.5 47.7615 7.5 45V10C7.5 7.23857 9.73857 5 12.5 5H47.5C50.2615 5 52.5 7.23857 52.5 10V45C52.5 47.7615 50.2615 50 47.5 50H43.75M30 47.5C34.1423 47.5 37.5 44.1423 37.5 40C37.5 35.8577 34.1423 32.5 30 32.5C25.8577 32.5 22.5 35.8577 22.5 40C22.5 44.1423 25.8577 47.5 30 47.5ZM30 47.5L30.0535 47.4995L22.0717 55.4815L15.0006 48.4102L22.5491 40.8617M30 47.5L37.982 55.4815L45.053 48.4102L37.5045 40.8617M22.5 15H37.5M17.5 23.75H42.5" stroke="#304038" stroke-width="2" stroke-linecap="round" stroke-linejoin="round"/>
</svg>
