<svg width="80" height="80" viewBox="0 0 80 80" fill="none" xmlns="http://www.w3.org/2000/svg">
<path d="M74.1104 49.0714V31.24C74.1104 29.9139 73.5836 28.6421 72.646 27.7045C71.7083 26.7668 70.4365 26.24 69.1104 26.24C67.7843 26.24 66.5126 26.7668 65.5749 27.7045C64.6372 28.6421 64.1104 29.9139 64.1104 31.24V39.9828C63.0969 39.4087 61.9032 39.241 60.7707 39.5137C59.6382 39.7863 58.6516 40.4789 58.0104 41.4514L52.9304 49.0857L51.8504 49.4657C49.1531 50.431 46.8914 52.3315 45.4759 54.8222C44.0604 57.3129 43.5851 60.2287 44.1361 63.04L44.5304 64.9943C44.3409 65.1196 44.1847 65.2891 44.0752 65.4882C43.9658 65.6873 43.9063 65.91 43.9019 66.1371V74.2857C43.9019 74.6646 44.0524 75.028 44.3203 75.2959C44.5882 75.5638 44.9515 75.7143 45.3304 75.7143H62.5904C62.9693 75.7143 63.3327 75.5638 63.6006 75.2959C63.8685 75.028 64.019 74.6646 64.019 74.2857V66.1543C64.0162 65.8048 63.8838 65.4689 63.6476 65.2114L73.859 49.8628C74.0193 49.6298 74.1068 49.3543 74.1104 49.0714ZM61.1733 72.8571H46.7704V67.5828H61.1733V72.8571ZM60.5704 64.7057V64.7257H47.4276L46.979 62.4857C46.5583 60.35 46.9182 58.1342 47.9931 56.2414C49.0679 54.3485 50.7865 52.9043 52.8361 52.1714L54.3647 51.6286C54.6565 51.526 54.9072 51.3315 55.079 51.0743L60.419 43.0428C60.6813 42.6597 61.0826 42.394 61.5378 42.3022C61.9929 42.2105 62.4659 42.2999 62.8561 42.5514C63.0536 42.6809 63.2228 42.8488 63.3539 43.0452C63.485 43.2415 63.5751 43.4623 63.619 43.6943C63.6651 43.9241 63.6654 44.1608 63.6198 44.3908C63.5742 44.6207 63.4836 44.8394 63.3533 45.0343L63.1904 45.28L61.5733 47.7086L57.2247 54.2428C57.1206 54.3989 57.0482 54.574 57.0118 54.758C56.9753 54.9421 56.9755 55.1315 57.0122 55.3155C57.049 55.4995 57.1216 55.6745 57.2259 55.8304C57.3303 55.9863 57.4643 56.1202 57.6204 56.2243C57.9357 56.4346 58.3215 56.511 58.6931 56.4368C58.8771 56.4 59.052 56.3274 59.208 56.2231C59.3639 56.1187 59.4977 55.9846 59.6019 55.8286L64.7933 48.0314L65.7361 46.6028L66.7219 45.12C66.8781 44.8856 66.9616 44.6103 66.9619 44.3286V31.2514C66.9605 30.8295 67.0844 30.4166 67.3178 30.0652C67.5513 29.7137 67.8838 29.4395 68.2733 29.2771C68.5979 29.1404 68.9513 29.0861 69.3019 29.1191C69.6526 29.1521 69.9896 29.2714 70.283 29.4663C70.5763 29.6613 70.8169 29.9257 70.9832 30.2362C71.1495 30.5467 71.2364 30.8935 71.2361 31.2457V48.64L60.5704 64.7057Z" fill="#304038"/>
<path d="M35.8519 63.0485C36.403 60.2372 35.9277 57.3214 34.5122 54.8307C33.0967 52.34 30.835 50.4395 28.1377 49.4742L27.0577 49.0942L22.0005 41.4599C21.3577 40.4852 20.3679 39.7917 19.2322 39.5205C18.0965 39.2494 16.9001 39.4208 15.8862 39.9999V31.2571C15.8862 30.6005 15.7569 29.9503 15.5056 29.3437C15.2544 28.737 14.8861 28.1858 14.4218 27.7215C13.9575 27.2573 13.4063 26.889 12.7996 26.6377C12.193 26.3864 11.5428 26.2571 10.8862 26.2571C10.2296 26.2571 9.57944 26.3864 8.97281 26.6377C8.36619 26.889 7.81499 27.2573 7.3507 27.7215C6.8864 28.1858 6.51811 28.737 6.26683 29.3437C6.01556 29.9503 5.88623 30.6005 5.88623 31.2571V49.0857C5.88645 49.3674 5.96995 49.6427 6.12623 49.8771L16.3377 65.2257C16.1014 65.4831 15.9691 65.8191 15.9662 66.1685V74.2857C15.9662 74.6645 16.1167 75.0279 16.3846 75.2958C16.6526 75.5637 17.0159 75.7142 17.3948 75.7142H34.6577C35.0365 75.7142 35.3999 75.5637 35.6678 75.2958C35.9357 75.0279 36.0862 74.6645 36.0862 74.2857V66.1542C36.0818 65.9271 36.0223 65.7044 35.9128 65.5053C35.8034 65.3062 35.6471 65.1367 35.4577 65.0114L35.8519 63.0485ZM8.74623 48.6371V31.2457C8.74532 30.8925 8.83195 30.5446 8.99836 30.2331C9.16478 29.9216 9.4058 29.6562 9.69987 29.4606C9.99394 29.265 10.3319 29.1454 10.6835 29.1124C11.0351 29.0793 11.3895 29.134 11.7148 29.2714C12.1048 29.4341 12.4378 29.7087 12.6717 30.0607C12.9057 30.4126 13.03 30.8259 13.0291 31.2485V44.3257C13.0293 44.6074 13.1128 44.8827 13.2691 45.1171L20.3919 55.8199C20.4961 55.976 20.6299 56.1101 20.7858 56.2144C20.9418 56.3188 21.1167 56.3914 21.3007 56.4282C21.4847 56.4649 21.6741 56.4651 21.8582 56.4286C22.0422 56.3921 22.2173 56.3198 22.3734 56.2157C22.5295 56.1115 22.6635 55.9777 22.7679 55.8218C22.8722 55.6658 22.9449 55.4909 22.9816 55.3069C23.0183 55.1229 23.0185 54.9335 22.982 54.7494C22.9456 54.5654 22.8732 54.3903 22.7691 54.2342L18.4177 47.7142L16.6377 45.0399C16.5046 44.844 16.412 44.6235 16.3653 44.3913C16.3187 44.1591 16.3189 43.9199 16.366 43.6878C16.4132 43.4557 16.5062 43.2353 16.6397 43.0397C16.7732 42.844 16.9444 42.677 17.1434 42.5485C17.5376 42.2895 18.0172 42.1942 18.4805 42.2828C18.7119 42.3274 18.9321 42.4175 19.1283 42.548C19.3245 42.6785 19.4928 42.8467 19.6234 43.0428L24.9662 51.0742C25.138 51.3314 25.3887 51.526 25.6805 51.6285L27.2119 52.1714C29.2611 52.9048 30.979 54.3492 32.0533 56.242C33.1276 58.1348 33.4871 60.3503 33.0662 62.4857L32.6177 64.7257H19.4748V64.7057L8.74623 48.6371ZM33.2291 72.8571H18.8262V67.5828H33.2291V72.8571Z" fill="#304038"/>
<path d="M58.5716 26.3485V13.1085C58.572 12.8302 58.4911 12.5578 58.3388 12.3248C58.1866 12.0918 57.9695 11.9084 57.7144 11.7971L40.5716 4.40277C40.3913 4.32411 40.1968 4.28351 40.0002 4.28351C39.8035 4.28351 39.609 4.32411 39.4287 4.40277L22.2859 11.7971C22.0308 11.9084 21.8138 12.0918 21.6615 12.3248C21.5092 12.5578 21.4283 12.8302 21.4287 13.1085V26.3485C21.4248 29.0426 22.0153 31.7043 23.1581 34.144C24.3009 36.5837 25.9679 38.7413 28.0402 40.4628L39.0859 49.6685C39.3426 49.8823 39.6661 49.9994 40.0002 49.9994C40.3342 49.9994 40.6577 49.8823 40.9144 49.6685L51.9602 40.4628C54.0325 38.7413 55.6994 36.5837 56.8423 34.144C57.9851 31.7043 58.5755 29.0426 58.5716 26.3485ZM50.1287 38.2856L40.0002 46.7142L29.8687 38.2856C28.1173 36.8291 26.7089 35.0041 25.7439 32.9407C24.7789 30.8773 24.281 28.6264 24.2859 26.3485V14.0628L40.0002 7.27134L55.7144 14.0485V26.3485C55.7195 28.6267 55.2215 30.878 54.256 32.9414C53.2904 35.0049 51.8811 36.8298 50.1287 38.2856Z" fill="#304038"/>
<path d="M45.4286 18.9887L37.8572 26.5516L34.5714 23.2744C34.4386 23.1416 34.2809 23.0362 34.1074 22.9644C33.9339 22.8925 33.7479 22.8555 33.56 22.8555C33.3722 22.8555 33.1862 22.8925 33.0126 22.9644C32.8391 23.0362 32.6814 23.1416 32.5486 23.2744C32.4158 23.4072 32.3104 23.5649 32.2385 23.7385C32.1666 23.912 32.1296 24.098 32.1296 24.2859C32.1296 24.4737 32.1666 24.6597 32.2385 24.8332C32.3104 25.0068 32.4158 25.1645 32.5486 25.2973L36.8343 29.583C36.967 29.716 37.1246 29.8216 37.2982 29.8936C37.4718 29.9656 37.6578 30.0027 37.8457 30.0027C38.0336 30.0027 38.2197 29.9656 38.3933 29.8936C38.5668 29.8216 38.7245 29.716 38.8572 29.583L47.4286 21.0116C47.6968 20.7433 47.8475 20.3795 47.8475 20.0001C47.8475 19.6208 47.6968 19.257 47.4286 18.9887C47.1603 18.7205 46.7965 18.5698 46.4172 18.5698C46.0378 18.5698 45.674 18.7205 45.4057 18.9887H45.4286Z" fill="#304038"/>
</svg>
