<svg width="60" height="60" viewBox="0 0 60 60" fill="none" xmlns="http://www.w3.org/2000/svg">
<path d="M29.9995 52.5L32.1995 51.55C36.8117 49.5711 40.7945 46.3678 43.7162 42.2871C46.6379 38.2063 48.3872 33.4039 48.7745 28.4L49.8495 14.6C49.8661 14.0289 49.6867 13.4694 49.341 13.0145C48.9953 12.5596 48.5042 12.2369 47.9495 12.1L29.9995 7.5L12.0495 12C11.4948 12.1369 11.0037 12.4596 10.658 12.9145C10.3123 13.3694 10.1329 13.9289 10.1495 14.5L11.2245 28.3C11.6118 33.3039 13.3611 38.1063 16.2828 42.1871C19.2045 46.2678 23.1873 49.4711 27.7995 51.45L29.9995 52.5Z" stroke="#304038" stroke-width="2"/>
<path d="M22.5 27.5L27.5 32.5L37.5 22.5" stroke="#304038" stroke-width="2"/>
</svg>
