<svg width="60" height="60" viewBox="0 0 60 60" fill="none" xmlns="http://www.w3.org/2000/svg">
<path d="M6.24982 22.5H53.7497M24.9998 7.5L19.9998 22.5L29.9997 51.25L39.9997 22.5L34.9997 7.5M31.5362 50.6563L53.9327 23.7804C54.3125 23.3249 54.5022 23.0971 54.5747 22.8429C54.6387 22.6188 54.6387 22.3812 54.5747 22.1571C54.5022 21.9029 54.3125 21.6751 53.9327 21.2196L43.0995 8.21962C42.879 7.9551 42.769 7.82285 42.6337 7.72777C42.514 7.64352 42.3805 7.58095 42.2392 7.54292C42.0795 7.5 41.9075 7.5 41.563 7.5H18.4366C18.0922 7.5 17.9201 7.5 17.7605 7.54292C17.6192 7.58095 17.4856 7.64352 17.3659 7.72777C17.2308 7.82285 17.1205 7.9551 16.9001 8.21962L6.0668 21.2196C5.68722 21.6751 5.49742 21.9029 5.4249 22.1571C5.36097 22.3812 5.36097 22.6188 5.4249 22.8429C5.49742 23.0971 5.68722 23.3249 6.0668 23.7804L28.4635 50.6563C28.991 51.2895 29.2547 51.606 29.5707 51.7215C29.8477 51.8228 30.1517 51.8228 30.429 51.7215C30.7447 51.606 31.0087 51.2895 31.5362 50.6563Z" stroke="white" stroke-width="2" stroke-linecap="round" stroke-linejoin="round"/>
</svg>
