<svg width="60" height="60" viewBox="0 0 60 60" fill="none" xmlns="http://www.w3.org/2000/svg">
<path d="M36.4258 11.075C39.3329 12.0532 41.976 13.687 44.1508 15.85C46.4554 18.1588 48.1703 20.9885 49.1508 24.1" stroke="white" stroke-width="2"/>
<path d="M17.5 7.5C15.5222 7.5 13.5888 8.08649 11.9443 9.1853C10.2998 10.2841 9.01809 11.8459 8.26121 13.6732C7.50433 15.5004 7.3063 17.5111 7.69215 19.4509C8.078 21.3907 9.03041 23.1725 10.4289 24.5711C11.8275 25.9696 13.6093 26.922 15.5491 27.3079C17.4889 27.6937 19.4996 27.4957 21.3268 26.7388C23.1541 25.9819 24.7159 24.7002 25.8147 23.0557C26.9135 21.4112 27.5 19.4778 27.5 17.5C27.5 14.8478 26.4464 12.3043 24.5711 10.4289C22.6957 8.55357 20.1522 7.5 17.5 7.5ZM42.5 52.5C44.4778 52.5 46.4112 51.9135 48.0557 50.8147C49.7002 49.7159 50.9819 48.1541 51.7388 46.3268C52.4957 44.4996 52.6937 42.4889 52.3079 40.5491C51.922 38.6093 50.9696 36.8275 49.5711 35.4289C48.1725 34.0304 46.3907 33.078 44.4509 32.6921C42.5111 32.3063 40.5004 32.5043 38.6732 33.2612C36.8459 34.0181 35.2841 35.2998 34.1853 36.9443C33.0865 38.5888 32.5 40.5222 32.5 42.5C32.5 45.1522 33.5536 47.6957 35.4289 49.5711C37.3043 51.4464 39.8478 52.5 42.5 52.5Z" stroke="white" stroke-width="2"/>
<path d="M44.625 22.0251L49.15 24.1251L51.25 19.6001" stroke="white" stroke-width="2"/>
<path d="M10.875 35.8999C11.8554 39.0113 13.5704 41.841 15.875 44.1499C18.0498 46.3129 20.6929 47.9467 23.6 48.9249" stroke="white" stroke-width="2"/>
<path d="M15.375 37.975L10.85 35.875L8.75 40.4" stroke="white" stroke-width="2"/>
</svg>
