<svg width="70" height="70" viewBox="0 0 70 70" fill="none" xmlns="http://www.w3.org/2000/svg">
<g clip-path="url(#clip0_548_1923)">
<path d="M38.4216 24.0293C31.4475 16.3577 19.7078 15.8929 12.1526 22.7506C11.8041 23.0997 11.3393 23.4481 10.9902 23.913L10.5254 24.7268L11.1066 25.4243L11.2229 25.5401C18.0806 33.0953 29.8204 33.5607 37.3756 26.7025C37.724 26.354 38.1889 26.0055 38.5379 25.5401L39.1191 24.7268L38.4216 24.0293ZM22.3815 24.7268C22.3815 23.4481 23.4275 22.4021 24.7062 22.4021C25.9843 22.4021 27.0308 23.4481 27.0308 24.7268C27.0308 26.0055 25.9843 27.0515 24.7062 27.0515C23.4275 27.0515 22.3815 26.0055 22.3815 24.7268ZM23.1948 20.3096C20.7538 21.1234 19.4756 23.6808 20.1726 26.1213C20.638 27.5163 21.684 28.6787 23.1948 29.1435C19.5914 28.795 16.1044 27.2836 13.4312 24.7268C16.2207 22.1694 19.5914 20.6586 23.1948 20.3096ZM26.217 29.1435C28.658 28.3302 29.9367 25.7728 29.2392 23.3318C28.7744 21.9373 27.7278 20.775 26.217 20.3096C29.8204 20.6586 33.3074 22.1694 35.9805 24.7268C33.191 27.2836 29.8204 28.795 26.217 29.1435Z" fill="#304038"/>
<path d="M24.7051 4.96729C13.7786 4.96729 4.94531 13.8012 4.94531 24.7271C4.94531 35.653 13.7786 44.4869 24.7051 44.4869C35.631 44.4869 44.4649 35.653 44.4649 24.7271C44.4649 13.8012 35.631 4.96729 24.7051 4.96729ZM24.7051 42.1622C15.0573 42.1622 7.26999 34.3743 7.26999 24.7271C7.26999 15.0793 15.0573 7.29197 24.7051 7.29197C34.3523 7.29197 42.1402 15.0793 42.1402 24.7271C42.1402 34.3743 34.3523 42.1622 24.7051 42.1622Z" fill="#304038"/>
<path d="M64.2244 50.2983V11.9411C64.2244 8.6862 61.667 6.12939 58.4127 6.12939H45.627V8.45407H58.4127C60.3883 8.45407 61.8997 9.96489 61.8997 11.9411V50.2983H64.2244Z" fill="#304038"/>
<path d="M6.10742 46.8115V58.4349C6.10742 61.6893 8.66423 64.2466 11.9191 64.2466H52.601V61.9219H11.9191C9.94292 61.9219 8.4321 60.4106 8.4321 58.4349V46.8115H6.10742Z" fill="#304038"/>
<path d="M49.1152 11.9414H59.5763V14.2661H49.1152V11.9414Z" fill="#304038"/>
<path d="M51.4396 17.7529H59.576V20.0776H51.4396V17.7529Z" fill="#304038"/>
<path d="M51.4396 23.5647H59.576V25.8894H51.4396V23.5647Z" fill="#304038"/>
<path d="M51.4396 29.3762H59.576V31.7009H51.4396V29.3762Z" fill="#304038"/>
<path d="M51.4396 35.188H59.576V37.5127H51.4396V35.188Z" fill="#304038"/>
<path d="M52.6016 40.9995H59.5756V43.3242H52.6016V40.9995Z" fill="#304038"/>
<path d="M10.7577 51.4607H42.1409V53.7854H10.7577V51.4607Z" fill="#304038"/>
<path d="M10.7577 56.1101H46.7902V58.4348H10.7577V56.1101Z" fill="#304038"/>
<path d="M16.5703 34.0259H32.8431V36.3506H16.5703V34.0259Z" fill="#304038"/>
<path d="M16.5703 13.1035H32.8431V15.4282H16.5703V13.1035Z" fill="#304038"/>
<path d="M56.4384 49.0198C55.7409 48.3223 54.9276 47.9738 53.9973 47.9738H53.184L44.815 38.5588C52.4865 27.4002 49.8128 12.1734 38.6548 4.38608C27.4962 -3.40183 12.1531 -0.49598 4.48154 10.5463C-3.18945 21.5885 -0.516292 36.9316 10.6423 44.7189C19.4762 50.8797 31.3317 50.5306 39.8171 43.7893L47.9535 52.9717V53.9019C47.9535 54.8315 48.302 55.7612 48.9995 56.3423L61.0877 68.4311C63.1797 70.5231 66.4346 70.5231 68.5266 68.4311C70.6191 66.3386 70.6191 63.0843 68.5266 60.9917L56.4384 49.0198ZM2.62225 24.727C2.62225 12.5225 12.5021 2.64256 24.7067 2.64256C36.9113 2.64256 46.7912 12.5225 46.7912 24.727C46.7912 36.9316 36.9113 46.8115 24.7067 46.8115C12.5021 46.8115 2.62225 36.9316 2.62225 24.727ZM41.5606 42.3943C42.1418 41.8131 42.8388 41.1161 43.3042 40.535L50.9751 49.1362L49.1159 50.8797L41.5606 42.3943ZM64.8074 67.7336C63.9936 67.7336 63.2961 67.3846 62.7149 66.9197L50.6267 54.8315C50.394 54.5988 50.2782 54.3667 50.2782 54.0177V53.088L53.0677 50.2985H53.9973C54.3464 50.2985 54.5785 50.4149 54.8112 50.647L66.8994 62.7352C68.0618 63.8976 68.0618 65.7574 66.8994 66.9197C66.3183 67.3846 65.5044 67.7336 64.8074 67.7336Z" fill="#304038"/>
</g>
<defs>
<clipPath id="clip0_548_1923">
<rect width="70" height="70" fill="white"/>
</clipPath>
</defs>
</svg>
