<svg width="24" height="24" viewBox="0 0 24 24" fill="none" xmlns="http://www.w3.org/2000/svg">
<g clip-path="url(#clip0_548_2155)">
<mask id="mask0_548_2155" style="mask-type:luminance" maskUnits="userSpaceOnUse" x="0" y="0" width="24" height="24">
<path d="M0 0H24V24H0V0Z" fill="white"/>
</mask>
<g mask="url(#mask0_548_2155)">
<path d="M12.979 4.79414L12.0004 0.142212L11.0218 4.79414C10.6999 6.32439 9.93975 7.72794 8.83403 8.83366C7.72831 9.93938 6.32476 10.6995 4.79451 11.0214L0.142578 12L4.79451 12.9786C6.32474 13.3005 7.7283 14.0607 8.83403 15.1664C9.93975 16.2721 10.6999 17.6756 11.0218 19.2059L12.0004 23.8578L12.979 19.2059C13.3009 17.6756 14.061 16.2721 15.1667 15.1664C16.2725 14.0607 17.676 13.3005 19.2063 12.9786L23.8582 12L19.2063 11.0214C17.676 10.6995 16.2724 9.93938 15.1667 8.83366C14.061 7.72794 13.3009 6.32439 12.979 4.79414Z" fill="white"/>
</g>
</g>
<defs>
<clipPath id="clip0_548_2155">
<rect width="24" height="24" fill="white"/>
</clipPath>
</defs>
</svg>
