<svg width="70" height="70" viewBox="0 0 70 70" fill="none" xmlns="http://www.w3.org/2000/svg">
<path d="M64.8466 42.9375V27.335C64.8466 26.1746 64.3856 25.0618 63.5652 24.2414C62.7447 23.4209 61.6319 22.96 60.4716 22.96C59.3112 22.96 58.1984 23.4209 57.378 24.2414C56.5575 25.0618 56.0966 26.1746 56.0966 27.335V34.985C55.2097 34.4826 54.1652 34.3359 53.1743 34.5744C52.1834 34.813 51.3201 35.419 50.7591 36.27L46.3141 42.95L45.3691 43.2825C43.0089 44.1271 41.0299 45.79 39.7913 47.9694C38.5528 50.1488 38.1369 52.7 38.6191 55.16L38.9641 56.87C38.7983 56.9796 38.6616 57.128 38.5658 57.3022C38.47 57.4763 38.4179 57.6712 38.4141 57.87V65C38.4141 65.3315 38.5458 65.6494 38.7802 65.8838C39.0146 66.1183 39.3325 66.25 39.6641 66.25H54.7666C55.0981 66.25 55.416 66.1183 55.6504 65.8838C55.8849 65.6494 56.0166 65.3315 56.0166 65V57.885C56.0141 57.5792 55.8983 57.2852 55.6916 57.06L64.6266 43.63C64.7668 43.426 64.8434 43.185 64.8466 42.9375ZM53.5266 63.75H40.9241V59.135H53.5266V63.75ZM52.9991 56.6175V56.635H41.4991L41.1066 54.675C40.7385 52.8062 41.0533 50.8674 41.9939 49.2112C42.9344 47.5549 44.4381 46.2913 46.2316 45.65L47.5691 45.175C47.8244 45.0852 48.0437 44.915 48.1941 44.69L52.8666 37.6625C53.096 37.3272 53.4473 37.0947 53.8455 37.0144C54.2437 36.9341 54.6576 37.0123 54.9991 37.2325C55.1718 37.3458 55.3199 37.4927 55.4346 37.6645C55.5493 37.8363 55.6282 38.0295 55.6666 38.2325C55.7069 38.4336 55.7072 38.6407 55.6673 38.8419C55.6274 39.0431 55.5481 39.2345 55.4341 39.405L55.2916 39.62L53.8766 41.745L50.0716 47.4625C49.9805 47.599 49.9171 47.7522 49.8852 47.9133C49.8533 48.0743 49.8535 48.2401 49.8856 48.401C49.9178 48.562 49.9813 48.7151 50.0726 48.8516C50.1639 48.988 50.2812 49.1051 50.4178 49.1962C50.6936 49.3802 51.0313 49.4471 51.3564 49.3822C51.5174 49.35 51.6705 49.2865 51.8069 49.1951C51.9433 49.1038 52.0605 48.9865 52.1516 48.85L56.6941 42.0275L57.5191 40.7775L58.3816 39.48C58.5183 39.2749 58.5914 39.034 58.5916 38.7875V27.345C58.5904 26.9758 58.6988 26.6145 58.9031 26.307C59.1073 25.9995 59.3983 25.7595 59.7391 25.6175C60.0231 25.4978 60.3323 25.4503 60.6391 25.4792C60.9459 25.5081 61.2409 25.6125 61.4975 25.783C61.7542 25.9536 61.9647 26.185 62.1103 26.4567C62.2558 26.7283 62.3318 27.0318 62.3316 27.34V42.56L52.9991 56.6175Z" fill="#304038"/>
<path d="M31.3704 55.1674C31.8526 52.7074 31.4367 50.1562 30.1981 47.9768C28.9596 45.7974 26.9805 44.1345 24.6204 43.2899L23.6754 42.9574L19.2504 36.2774C18.6879 35.4244 17.8218 34.8177 16.8281 34.5804C15.8343 34.3431 14.7875 34.4931 13.9004 34.9999V27.3499C13.9004 26.7753 13.7872 26.2064 13.5674 25.6756C13.3475 25.1448 13.0252 24.6625 12.619 24.2563C12.2127 23.85 11.7304 23.5277 11.1996 23.3079C10.6688 23.088 10.0999 22.9749 9.52539 22.9749C8.95086 22.9749 8.38195 23.088 7.85115 23.3079C7.32035 23.5277 6.83806 23.85 6.4318 24.2563C6.02554 24.6625 5.70328 25.1448 5.48342 25.6756C5.26355 26.2064 5.15039 26.7753 5.15039 27.3499V42.9499C5.15058 43.1963 5.22364 43.4373 5.36039 43.6424L14.2954 57.0724C14.0887 57.2976 13.9729 57.5916 13.9704 57.8974V64.9999C13.9704 65.3314 14.1021 65.6493 14.3365 65.8837C14.5709 66.1182 14.8889 66.2499 15.2204 66.2499H30.3254C30.6569 66.2499 30.9749 66.1182 31.2093 65.8837C31.4437 65.6493 31.5754 65.3314 31.5754 64.9999V57.8849C31.5715 57.6861 31.5195 57.4912 31.4237 57.3171C31.3279 57.1429 31.1912 56.9945 31.0254 56.8849L31.3704 55.1674ZM7.65289 42.5574V27.3399C7.65209 27.0308 7.72789 26.7264 7.87351 26.4539C8.01912 26.1813 8.23001 25.9491 8.48733 25.778C8.74464 25.6068 9.04035 25.5021 9.34801 25.4732C9.65568 25.4443 9.96571 25.4921 10.2504 25.6124C10.5916 25.7547 10.883 25.9951 11.0877 26.303C11.2924 26.6109 11.4012 26.9726 11.4004 27.3424V38.7849C11.4006 39.0313 11.4736 39.2723 11.6104 39.4774L17.8429 48.8424C17.934 48.9789 18.0511 49.0962 18.1875 49.1875C18.324 49.2789 18.4771 49.3424 18.6381 49.3745C18.799 49.4067 18.9648 49.4068 19.1258 49.3749C19.2869 49.343 19.4401 49.2797 19.5766 49.1886C19.7132 49.0975 19.8305 48.9804 19.9218 48.844C20.0131 48.7075 20.0767 48.5544 20.1088 48.3934C20.141 48.2324 20.1411 48.0667 20.1092 47.9057C20.0773 47.7446 20.014 47.5914 19.9229 47.4549L16.1154 41.7499L14.5579 39.4099C14.4414 39.2384 14.3604 39.0455 14.3196 38.8423C14.2788 38.6391 14.279 38.4298 14.3202 38.2267C14.3615 38.0236 14.4429 37.8308 14.5597 37.6596C14.6765 37.4884 14.8263 37.3423 15.0004 37.2299C15.3453 37.0032 15.765 36.9198 16.1704 36.9974C16.3728 37.0364 16.5655 37.1153 16.7372 37.2294C16.9089 37.3436 17.0561 37.4908 17.1704 37.6624L21.8454 44.6899C21.9957 44.9149 22.215 45.0851 22.4704 45.1749L23.8104 45.6499C25.6034 46.2916 27.1065 47.5555 28.0466 49.2117C28.9866 50.8679 29.3011 52.8064 28.9329 54.6749L28.5404 56.6349H17.0404V56.6174L7.65289 42.5574ZM29.0754 63.7499H16.4729V59.1349H29.0754V63.7499Z" fill="#304038"/>
<path d="M51.25 23.0549V11.4699C51.2504 11.2264 51.1796 10.988 51.0463 10.7842C50.9131 10.5803 50.7232 10.4198 50.5 10.3224L35.5 3.8524C35.3423 3.78357 35.1721 3.74805 35 3.74805C34.8279 3.74805 34.6577 3.78357 34.5 3.8524L19.5 10.3224C19.2768 10.4198 19.0869 10.5803 18.9537 10.7842C18.8204 10.988 18.7497 11.2264 18.75 11.4699V23.0549C18.7466 25.4122 19.2632 27.7413 20.2632 29.876C21.2631 32.0107 22.7217 33.8986 24.535 35.4049L34.2 43.4599C34.4246 43.647 34.7077 43.7494 35 43.7494C35.2923 43.7494 35.5754 43.647 35.8 43.4599L45.465 35.4049C47.2783 33.8986 48.7369 32.0107 49.7368 29.876C50.7368 27.7413 51.2535 25.4122 51.25 23.0549ZM43.8625 33.4999L35 40.8749L26.135 33.4999C24.6025 32.2254 23.3702 30.6285 22.5258 28.8231C21.6814 27.0176 21.2458 25.0481 21.25 23.0549V12.3049L35 6.3624L48.75 12.2924V23.0549C48.7545 25.0483 48.3187 27.0182 47.4738 28.8237C46.629 30.6293 45.3958 32.226 43.8625 33.4999Z" fill="#304038"/>
<path d="M39.7499 16.6151L33.1249 23.2326L30.2499 20.3651C30.1336 20.2489 29.9957 20.1567 29.8438 20.0938C29.692 20.0309 29.5292 19.9985 29.3649 19.9985C29.2005 19.9985 29.0378 20.0309 28.8859 20.0938C28.7341 20.1567 28.5961 20.2489 28.4799 20.3651C28.3636 20.4813 28.2715 20.6193 28.2086 20.7712C28.1457 20.923 28.1133 21.0858 28.1133 21.2501C28.1133 21.4145 28.1457 21.5772 28.2086 21.7291C28.2715 21.8809 28.3636 22.0189 28.4799 22.1351L32.2299 25.8851C32.346 26.0015 32.4839 26.0939 32.6358 26.1569C32.7876 26.2199 32.9504 26.2523 33.1149 26.2523C33.2793 26.2523 33.4421 26.2199 33.5939 26.1569C33.7458 26.0939 33.8837 26.0015 33.9999 25.8851L41.4999 18.3851C41.7346 18.1504 41.8664 17.8321 41.8664 17.5001C41.8664 17.1682 41.7346 16.8498 41.4999 16.6151C41.2651 16.3804 40.9468 16.2485 40.6149 16.2485C40.2829 16.2485 39.9646 16.3804 39.7299 16.6151H39.7499Z" fill="#304038"/>
</svg>
