<svg width="20" height="20" viewBox="0 0 20 20" fill="none" xmlns="http://www.w3.org/2000/svg">
<path d="M9.99997 16.6667H17.5M2.5 16.6667H3.89545C4.30311 16.6667 4.50693 16.6667 4.69874 16.6206C4.8688 16.5797 5.03137 16.5124 5.1805 16.4211C5.34869 16.318 5.49282 16.1738 5.78108 15.8856L16.2501 5.41665C16.9404 4.7263 16.9404 3.60701 16.2501 2.91665C15.5596 2.2263 14.4404 2.2263 13.7501 2.91665L3.28105 13.3856C2.9928 13.6738 2.84867 13.818 2.7456 13.9862C2.65422 14.1353 2.58687 14.2978 2.54605 14.4679C2.5 14.6597 2.5 14.8636 2.5 15.2713V16.6667Z" stroke="#596460" stroke-width="2" stroke-linecap="round" stroke-linejoin="round"/>
</svg>
