<svg width="70" height="70" viewBox="0 0 70 70" fill="none" xmlns="http://www.w3.org/2000/svg">
<g clip-path="url(#clip0_548_1843)">
<path d="M1.56623 64.0446H68.4319C68.7453 64.0446 69.0588 63.9401 69.2677 63.6267C69.4767 63.3132 69.4767 62.9998 69.4767 62.6864L65.7155 50.2535C65.611 49.8356 65.1931 49.5222 64.6707 49.5222H58.0886L54.5364 37.8207C54.4319 37.4028 54.014 37.0893 53.4916 37.0893H46.805L43.3573 25.4923C43.2528 25.0744 42.8349 24.761 42.3125 24.761H27.4767C27.0588 24.761 26.6409 25.0744 26.4319 25.4923L22.8797 37.1938H16.2976C15.8797 37.1938 15.4618 37.5073 15.2528 37.9252L11.7006 49.6267H5.32743C4.90951 49.6267 4.4916 49.9401 4.28265 50.358L0.521456 62.6864C0.416978 62.9998 0.521456 63.3132 0.730411 63.6267C0.939366 63.9401 1.2528 64.0446 1.56623 64.0446ZM23.82 59.4476L21.5215 51.7162H26.2229L23.82 59.4476ZM25.2826 61.955L28.417 51.6117H41.6856L44.82 61.955H25.2826ZM46.1782 59.4476L43.8797 51.7162H48.5812L46.1782 59.4476ZM67.0737 61.955H47.5364L50.6707 51.6117H57.2528H63.8349L67.0737 61.955ZM55.8946 49.5222C44.9244 49.5222 47.2229 49.5222 36.4618 49.5222L39.5961 39.1789H52.8647L55.8946 49.5222ZM34.9991 47.0147L32.7006 39.2834H37.4021L34.9991 47.0147ZM28.417 26.8505H41.6856L44.7155 37.1938C42.7304 37.1938 51.9244 37.1938 25.2826 37.1938L28.417 26.8505ZM17.2379 39.2834H30.5065L33.6409 49.6267C22.6707 49.6267 24.9692 49.6267 14.208 49.6267L17.2379 39.2834ZM6.05877 51.6117H12.6409H19.2229L22.3573 61.955H2.92444L6.05877 51.6117Z" fill="#304038"/>
<path d="M34.9999 14.7312C35.6267 14.7312 36.0446 14.3133 36.0446 13.6864V6.99985C36.0446 6.37299 35.6267 5.95508 34.9999 5.95508C34.373 5.95508 33.9551 6.37299 33.9551 6.99985V13.6864C33.9551 14.2088 34.373 14.7312 34.9999 14.7312Z" fill="#304038"/>
<path d="M20.6848 19.9552C21.1028 20.3731 21.7296 20.3731 22.1475 19.9552C22.5654 19.5372 22.5654 18.9104 22.1475 18.4925L17.446 13.791C17.0281 13.3731 16.4013 13.3731 15.9834 13.791C15.5654 14.2089 15.5654 14.8357 15.9834 15.2537L20.6848 19.9552Z" fill="#304038"/>
<path d="M9.19309 33.8505H15.8797C16.5065 33.8505 16.9244 33.4326 16.9244 32.8058C16.9244 32.1789 16.5065 31.761 15.8797 31.761H9.19309C8.56623 31.761 8.14832 32.1789 8.14832 32.8058C8.14832 33.4326 8.56623 33.8505 9.19309 33.8505Z" fill="#304038"/>
<path d="M53.0742 32.806C53.0742 33.4329 53.4921 33.8508 54.119 33.8508H60.8056C61.4324 33.8508 61.8503 33.4329 61.8503 32.806C61.8503 32.1791 61.4324 31.7612 60.8056 31.7612H54.119C53.4921 31.7612 53.0742 32.1791 53.0742 32.806Z" fill="#304038"/>
<path d="M49.2078 19.9552L53.9093 15.2537C54.3272 14.8357 54.3272 14.2089 53.9093 13.791C53.4913 13.3731 52.8645 13.3731 52.4466 13.791L47.7451 18.4925C47.3272 18.9104 47.3272 19.5372 47.7451 19.9552C48.163 20.3731 48.8943 20.3731 49.2078 19.9552Z" fill="#304038"/>
</g>
<defs>
<clipPath id="clip0_548_1843">
<rect width="70" height="70" fill="white"/>
</clipPath>
</defs>
</svg>
