<svg width="15" height="14" viewBox="0 0 15 14" fill="none" xmlns="http://www.w3.org/2000/svg">
<path fill-rule="evenodd" clip-rule="evenodd" d="M9.71813 8.83076C7.03014 8.83076 4.85907 6.65106 4.85907 3.97168C4.85907 6.65106 2.67938 8.83076 0 8.83076C2.67938 8.83076 4.85907 11.0018 4.85907 13.6812C4.85907 11.0018 7.03014 8.83076 9.71813 8.83076Z" fill="#F5F5F5"/>
<path fill-rule="evenodd" clip-rule="evenodd" d="M14.7071 11.3378C13.2339 11.3378 12.045 10.1403 12.045 8.67566C12.045 10.1403 10.8474 11.3378 9.38281 11.3378C10.8474 11.3378 12.045 12.5267 12.045 14C12.045 12.5267 13.2339 11.3378 14.7071 11.3378Z" fill="#F5F5F5"/>
<path fill-rule="evenodd" clip-rule="evenodd" d="M13.1741 3.23938C11.3821 3.23938 9.93469 1.792 9.93469 0C9.93469 1.792 8.48731 3.23938 6.69531 3.23938C8.48731 3.23938 9.93469 4.68677 9.93469 6.47877C9.93469 4.68677 11.3821 3.23938 13.1741 3.23938Z" fill="#F5F5F5"/>
</svg>
