<svg width="60" height="60" viewBox="0 0 60 60" fill="none" xmlns="http://www.w3.org/2000/svg">
<path d="M40 37.5V15C40 14.337 39.7366 13.7011 39.2678 13.2322C38.7989 12.7634 38.163 12.5 37.5 12.5H10C9.33696 12.5 8.70107 12.7634 8.23223 13.2322C7.76339 13.7011 7.5 14.337 7.5 15V40C7.5 40.663 7.76339 41.2989 8.23223 41.7678C8.70107 42.2366 9.33696 42.5 10 42.5H15" stroke="#304038" stroke-width="2"/>
<path d="M35 42.5H25" stroke="#304038" stroke-width="2"/>
<path d="M25 42.5C25 43.4889 24.7068 44.4556 24.1574 45.2779C23.6079 46.1001 22.827 46.741 21.9134 47.1194C20.9998 47.4978 19.9945 47.5969 19.0246 47.4039C18.0546 47.211 17.1637 46.7348 16.4645 46.0355C15.7652 45.3363 15.289 44.4454 15.0961 43.4755C14.9031 42.5055 15.0022 41.5002 15.3806 40.5866C15.759 39.673 16.3999 38.8921 17.2222 38.3427C18.0444 37.7932 19.0111 37.5 20 37.5C21.3261 37.5 22.5979 38.0268 23.5355 38.9645C24.4732 39.9021 25 41.1739 25 42.5ZM40 37.5C39.0111 37.5 38.0444 37.7932 37.2222 38.3427C36.3999 38.8921 35.759 39.673 35.3806 40.5866C35.0022 41.5002 34.9031 42.5055 35.0961 43.4755C35.289 44.4454 35.7652 45.3363 36.4645 46.0355C37.1637 46.7348 38.0546 47.211 39.0246 47.4039C39.9945 47.5969 40.9998 47.4978 41.9134 47.1194C42.8271 46.741 43.6079 46.1001 44.1574 45.2779C44.7068 44.4556 45 43.4889 45 42.5C45 41.1739 44.4732 39.9021 43.5355 38.9645C42.5979 38.0268 41.3261 37.5 40 37.5Z" stroke="#304038" stroke-width="2"/>
<path d="M45 42.5H50C50.663 42.5 51.2989 42.2366 51.7678 41.7678C52.2366 41.2989 52.5 40.663 52.5 40V30L48.2 21.375C47.9903 20.9589 47.6686 20.6097 47.271 20.3667C46.8735 20.1238 46.4159 19.9968 45.95 20H40" stroke="#304038" stroke-width="2"/>
</svg>
