<svg width="50" height="50" viewBox="0 0 50 50" fill="none" xmlns="http://www.w3.org/2000/svg">
<g clip-path="url(#clip0_548_2189)">
<path d="M11.0811 30.2139L9.34063 36.7111L2.97939 36.8457C1.07832 33.3196 0 29.2854 0 24.9982C0 20.8526 1.0082 16.9433 2.79531 13.501H2.79668L8.45996 14.5393L10.9408 20.1686C10.4216 21.6823 10.1386 23.3073 10.1386 24.9982C10.1388 26.8334 10.4712 28.5917 11.0811 30.2139Z" fill="#FBBB00"/>
<path d="M49.5624 20.332C49.8495 21.8443 49.9992 23.4062 49.9992 25.0023C49.9992 26.7922 49.811 28.5381 49.4525 30.2222C48.2355 35.9529 45.0556 40.957 40.6504 44.4982L40.649 44.4969L33.5158 44.1329L32.5063 37.8307C35.4293 36.1164 37.7137 33.4337 38.917 30.2222H25.5488V20.332H39.112H49.5624Z" fill="#518EF8"/>
<path d="M40.6508 44.4937L40.6521 44.495C36.3679 47.9387 30.9255 49.9991 25.0011 49.9991C15.4805 49.9991 7.20303 44.6777 2.98047 36.8467L11.0821 30.2148C13.1934 35.8494 18.6288 39.8604 25.0011 39.8604C27.74 39.8604 30.3061 39.12 32.5079 37.8274L40.6508 44.4937Z" fill="#28B446"/>
<path d="M40.957 5.75547L32.8581 12.3859C30.5793 10.9615 27.8855 10.1387 24.9996 10.1387C18.4831 10.1387 12.946 14.3337 10.9405 20.1703L2.79629 13.5027H2.79492C6.95566 5.48076 15.3375 0 24.9996 0C31.0655 0 36.6273 2.16074 40.957 5.75547Z" fill="#F14336"/>
</g>
<defs>
<clipPath id="clip0_548_2189">
<rect width="50" height="50" fill="white"/>
</clipPath>
</defs>
</svg>
