<svg width="66" height="66" viewBox="0 0 66 66" fill="none" xmlns="http://www.w3.org/2000/svg">
<path d="M33.0009 0L49.2633 16.4996C53.6068 20.9064 56 26.7663 56 32.9991C56 39.232 53.6068 45.0918 49.2633 49.4987L39.5065 59.3977L23.2442 42.8981C17.8642 37.4397 17.8642 28.5567 23.2442 23.0983L33.0026 13.1993L42.7594 23.1001C48.1393 28.5585 48.1393 37.4415 42.7594 42.8999L39.5065 46.2002L36.3517 43.0012L39.6046 39.7009C43.246 36.0063 43.246 29.9955 39.6046 26.3009L33.0009 19.6009L26.3972 26.3009C22.7557 29.9955 22.7557 36.0063 26.3972 39.7009L39.5065 53.0014L46.1102 46.3014C49.6116 42.7489 51.5409 38.0259 51.5409 33.0009C51.5409 27.9759 49.6116 23.2528 46.1102 19.7003L33.0009 6.39982L19.8915 19.7003C16.3901 23.2528 14.4608 27.9759 14.4608 33.0009C14.4608 38.0259 16.3884 42.7489 19.8915 46.3014L36.1539 62.801L32.9991 66L16.7367 49.5004C12.3932 45.0936 10 39.2337 10 33.0009C10 26.768 12.3915 20.9082 16.7367 16.5013L32.9991 0.00177798L33.0009 0Z" fill="white"/>
</svg>
