<svg width="135" height="50" viewBox="0 0 135 50" fill="none" xmlns="http://www.w3.org/2000/svg">
<path d="M17.5007 0L29.8742 12.4997C33.1791 15.8382 35 20.2775 35 24.9993C35 29.7212 33.1791 34.1605 29.8742 37.499L22.4506 44.9983L10.0771 32.4986C5.98364 28.3634 5.98364 21.6339 10.0771 17.4987L17.502 9.99946L24.9256 17.5001C29.019 21.6352 29.019 28.3648 24.9256 32.4999L22.4506 35.0001L20.0502 32.5766L22.5252 30.0764C25.2959 27.2775 25.2959 22.7238 22.5252 19.9249L17.5007 14.8492L12.4761 19.9249C9.70543 22.7238 9.70543 27.2775 12.4761 30.0764L22.4506 40.1526L27.4752 35.0768C30.1393 32.3856 31.6072 28.8075 31.6072 25.0007C31.6072 21.1938 30.1393 17.6158 27.4752 14.9245L17.5007 4.84835L7.52617 14.9245C4.86204 17.6158 3.3941 21.1938 3.3941 25.0007C3.3941 28.8075 4.8607 32.3856 7.52617 35.0768L19.8997 47.5765L17.4993 50L5.12578 37.5003C1.82093 34.1618 0 29.7225 0 25.0007C0 20.2788 1.8196 15.8395 5.12578 12.501L17.4993 0.00134696L17.5007 0Z" fill="white"/>
<path d="M56.52 36.39C55.1 36.39 53.765 36.11 52.515 35.55C51.265 34.98 50.165 34.195 49.215 33.195C48.275 32.195 47.535 31.04 46.995 29.73C46.465 28.41 46.2 27 46.2 25.5C46.2 23.99 46.465 22.58 46.995 21.27C47.535 19.95 48.275 18.795 49.215 17.805C50.165 16.805 51.265 16.025 52.515 15.465C53.765 14.895 55.1 14.61 56.52 14.61C58.22 14.61 59.785 15.005 61.215 15.795C62.645 16.575 63.83 17.62 64.77 18.93L61.5 20.685C60.91 19.955 60.175 19.37 59.295 18.93C58.425 18.49 57.5 18.27 56.52 18.27C55.6 18.27 54.735 18.46 53.925 18.84C53.115 19.21 52.405 19.73 51.795 20.4C51.185 21.06 50.71 21.83 50.37 22.71C50.03 23.58 49.86 24.51 49.86 25.5C49.86 26.5 50.03 27.435 50.37 28.305C50.72 29.175 51.2 29.945 51.81 30.615C52.42 31.275 53.125 31.795 53.925 32.175C54.735 32.545 55.6 32.73 56.52 32.73C57.52 32.73 58.45 32.51 59.31 32.07C60.18 31.62 60.91 31.03 61.5 30.3L64.77 32.07C63.83 33.37 62.645 34.415 61.215 35.205C59.785 35.995 58.22 36.39 56.52 36.39ZM67.4836 21H71.1436V36H67.4836V21ZM69.3436 19.065C68.8036 19.065 68.3486 18.89 67.9786 18.54C67.6086 18.18 67.4236 17.73 67.4236 17.19C67.4236 16.66 67.6086 16.215 67.9786 15.855C68.3486 15.495 68.7986 15.315 69.3286 15.315C69.8586 15.315 70.3036 15.495 70.6636 15.855C71.0336 16.215 71.2186 16.66 71.2186 17.19C71.2186 17.73 71.0386 18.18 70.6786 18.54C70.3186 18.89 69.8736 19.065 69.3436 19.065ZM85.5277 21H89.1877V36.285C89.1877 37.365 88.9677 38.345 88.5277 39.225C88.0877 40.115 87.4877 40.875 86.7277 41.505C85.9677 42.145 85.0977 42.635 84.1177 42.975C83.1377 43.325 82.1077 43.5 81.0277 43.5C79.9777 43.5 78.9677 43.285 77.9977 42.855C77.0277 42.425 76.1677 41.835 75.4177 41.085C74.6777 40.345 74.1127 39.5 73.7227 38.55L77.0677 37.035C77.2677 37.585 77.5677 38.065 77.9677 38.475C78.3777 38.895 78.8477 39.22 79.3777 39.45C79.9077 39.69 80.4577 39.81 81.0277 39.81C81.6077 39.81 82.1627 39.73 82.6927 39.57C83.2327 39.41 83.7177 39.175 84.1477 38.865C84.5777 38.565 84.9127 38.195 85.1527 37.755C85.4027 37.325 85.5277 36.835 85.5277 36.285V34.17C85.0577 34.83 84.4677 35.365 83.7577 35.775C83.0477 36.185 82.2277 36.39 81.2977 36.39C80.2177 36.39 79.2077 36.185 78.2677 35.775C77.3277 35.365 76.4977 34.8 75.7777 34.08C75.0677 33.35 74.5077 32.51 74.0977 31.56C73.6977 30.61 73.4977 29.59 73.4977 28.5C73.4977 27.41 73.6977 26.39 74.0977 25.44C74.5077 24.49 75.0677 23.655 75.7777 22.935C76.4977 22.205 77.3277 21.635 78.2677 21.225C79.2077 20.815 80.2177 20.61 81.2977 20.61C82.2277 20.61 83.0477 20.815 83.7577 21.225C84.4677 21.625 85.0577 22.155 85.5277 22.815V21ZM81.3427 32.865C82.1127 32.865 82.7927 32.67 83.3827 32.28C83.9827 31.88 84.4527 31.35 84.7927 30.69C85.1327 30.02 85.3027 29.29 85.3027 28.5C85.3027 27.7 85.1277 26.97 84.7777 26.31C84.4377 25.65 83.9677 25.12 83.3677 24.72C82.7777 24.32 82.1027 24.12 81.3427 24.12C80.5927 24.12 79.9077 24.32 79.2877 24.72C78.6677 25.11 78.1727 25.635 77.8027 26.295C77.4327 26.955 77.2477 27.69 77.2477 28.5C77.2477 29.31 77.4327 30.045 77.8027 30.705C78.1727 31.365 78.6677 31.89 79.2877 32.28C79.9077 32.67 80.5927 32.865 81.3427 32.865ZM106.536 26.52V36H102.876V27.48C102.876 26.89 102.731 26.355 102.441 25.875C102.151 25.385 101.761 25 101.271 24.72C100.791 24.43 100.256 24.285 99.6661 24.285C99.0761 24.285 98.5361 24.43 98.0461 24.72C97.5661 25 97.1811 25.385 96.8911 25.875C96.6111 26.355 96.4711 26.89 96.4711 27.48V36H92.8111L92.7961 21H96.4561L96.4711 22.335C96.9811 21.795 97.5911 21.37 98.3011 21.06C99.0111 20.74 99.7761 20.58 100.596 20.58C101.686 20.58 102.681 20.85 103.581 21.39C104.481 21.92 105.196 22.635 105.726 23.535C106.266 24.425 106.536 25.42 106.536 26.52ZM115.832 36.39C114.452 36.39 113.192 36.035 112.052 35.325C110.922 34.615 110.017 33.66 109.337 32.46C108.667 31.26 108.332 29.935 108.332 28.485C108.332 27.395 108.527 26.375 108.917 25.425C109.307 24.465 109.842 23.625 110.522 22.905C111.212 22.175 112.012 21.605 112.922 21.195C113.832 20.785 114.802 20.58 115.832 20.58C117.002 20.58 118.072 20.83 119.042 21.33C120.022 21.82 120.852 22.495 121.532 23.355C122.212 24.215 122.707 25.195 123.017 26.295C123.327 27.395 123.397 28.545 123.227 29.745H112.262C112.402 30.305 112.632 30.81 112.952 31.26C113.272 31.7 113.677 32.055 114.167 32.325C114.657 32.585 115.212 32.72 115.832 32.73C116.472 32.74 117.052 32.59 117.572 32.28C118.102 31.96 118.542 31.53 118.892 30.99L122.627 31.86C122.017 33.19 121.107 34.28 119.897 35.13C118.687 35.97 117.332 36.39 115.832 36.39ZM112.142 27H119.522C119.412 26.4 119.177 25.86 118.817 25.38C118.467 24.89 118.032 24.5 117.512 24.21C116.992 23.92 116.432 23.775 115.832 23.775C115.232 23.775 114.677 23.92 114.167 24.21C113.657 24.49 113.222 24.875 112.862 25.365C112.512 25.845 112.272 26.39 112.142 27ZM133.707 24.66H130.797V36H127.137V24.66H124.917V21H127.137V16.29H130.797V21H133.707V24.66Z" fill="white"/>
</svg>
